{"title":"Maybeshewill - Live at the Y Theatre (1080p).mp4","uid":8820746,"size":2242619844,"categoryP":"video","categoryS":"music_videos","magnet":"?xt=urn:btih:4125a6d1dae6f2419c7aa913566f4cb3f058e2f4&amp;dn=Maybeshewill+-+Live+at+the+Y+Theatre+%281080p%29.mp4&amp;tr=udp%3A%2F%2Ftracker.openbittorrent.com%3A80&amp;tr=udp%3A%2F%2Fopen.demonii.com%3A1337&amp;tr=udp%3A%2F%2Ftracker.coppersurfer.tk%3A6969&amp;tr=udp%3A%2F%2Fexodus.desync.com%3A6969","seeders":0,"leechers":0,"uploader":"Sekae","files":1,"time":1376697168,"description":"seed &amp; enjoy!\n\nspecs:\n\nGeneral\nFormat                                   : MPEG-4\nFormat profile                           : Base Media / Version 2\nCodec ID                                 : mp42\nFile size                                : 2.09 GiB\nDuration                                 : 44mn 30s\nOverall bit rate mode                    : Variable\nOverall bit rate                         : 6 719 Kbps\nEncoded date                             : UTC 2013-04-21 02:23:09\nTagged date                              : UTC 2013-04-21 02:28:40\nÂ©TIM                                     : 00:00:00:00\nÂ©TSC                                     : 25\nÂ©TSZ                                     : 1\n\nVideo\nID                                       : 1\nFormat                                   : AVC\nFormat/Info                              : Advanced Video Codec\nFormat profile                           : &lt;a class=&quot;__cf_email__&quot; href=&quot;/cdn-cgi/l/email-protection&quot; data-cfemail=&quot;1d55747a755d5129332d&quot;&gt;[email&amp;#160;protected]&lt;/a&gt;&lt;script cf-hash='f9e31' type=&quot;text/javascript&quot;&gt;\n/* &lt;![CDATA[ */!function(){try{var t=&quot;currentScript&quot;in document?document.currentScript:function(){for(var t=document.getElementsByTagName(&quot;script&quot;),e=t.length;e--;)if(t[e].getAttribute(&quot;cf-hash&quot;))return t[e]}();if(t&amp;&amp;t.previousSibling){var e,r,n,i,c=t.previousSibling,a=c.getAttribute(&quot;data-cfemail&quot;);if(a){for(e=&quot;&quot;,r=parseInt(a.substr(0,2),16),n=2;a.length-n;n+=2)i=parseInt(a.substr(n,2),16)^r,e+=String.fromCharCode(i);e=document.createTextNode(e),c.parentNode.replaceChild(e,c)}}}catch(u){}}();/* ]]&gt; */&lt;/script&gt;\nFormat settings, CABAC                   : Yes\nFormat settings, ReFrames                : 3 frames\nFormat settings, GOP                     : M=3, N=25\nCodec ID                                 : avc1\nCodec ID/Info                            : Advanced Video Coding\nDuration                                 : 44mn 30s\nBit rate                                 : 6 396 Kbps\nWidth                                    : 1 920 pixels\nHeight                                   : 1 080 pixels\nDisplay aspect ratio                     : 16:9\nFrame rate mode                          : Constant\nFrame rate                               : 25.000 fps\nStandard                                 : PAL\nColor space                              : YUV\nChroma subsampling                       : 4:2:0\nBit depth                                : 8 bits\nScan type                                : Progressive\nBits/(Pixel*Frame)                       : 0.123\nStream size                              : 1.99 GiB (95%)\nLanguage                                 : English\nEncoded date                             : UTC 2013-04-21 02:23:09\nTagged date                              : UTC 2013-04-21 02:23:09\nColor primaries                          : BT.709\nTransfer characteristics                 : BT.709\nMatrix coefficients                      : BT.709\n\nAudio\nID                                       : 2\nFormat                                   : AAC\nFormat/Info                              : Advanced Audio Codec\nFormat profile                           : LC\nCodec ID                                 : 40\nDuration                                 : 44mn 30s\nSource duration                          : 44mn 30s\nBit rate mode                            : Variable\nBit rate                                 : 318 Kbps\nMaximum bit rate                         : 437 Kbps\nChannel(s)                               : 2 channels\nChannel positions                        : Front: L R\nSampling rate                            : 44.1 KHz\nCompression mode                         : Lossy\nStream size                              : 101 MiB (5%)\nSource stream size                       : 101 MiB (5%)\nLanguage                                 : English\nEncoded date                             : UTC 2013-04-21 02:23:09\nTagged date                              : UTC 2013-04-21 02:23:09\nmdhd_Duration                            : 2670039\n\n","torrent":{"xt":"urn:btih:4125a6d1dae6f2419c7aa913566f4cb3f058e2f4","amp;dn":"Maybeshewill+-+Live+at+the+Y+Theatre+%281080p%29.mp4","amp;tr":["udp%3A%2F%2Ftracker.openbittorrent.com%3A80","udp%3A%2F%2Fopen.demonii.com%3A1337","udp%3A%2F%2Ftracker.coppersurfer.tk%3A6969","udp%3A%2F%2Fexodus.desync.com%3A6969"],"infoHash":"4125a6d1dae6f2419c7aa913566f4cb3f058e2f4","infoHashBuffer":{"type":"Buffer","data":[65,37,166,209,218,230,242,65,156,122,169,19,86,111,76,179,240,88,226,244]},"announce":[],"urlList":[]}}